<?xml version="1.0" encoding="UTF-8"?>
<svg width="117px" height="61px" viewBox="0 0 117 61" version="1.1" xmlns="http://www.w3.org/2000/svg" xmlns:xlink="http://www.w3.org/1999/xlink">
    <title>Group 39</title>
    <g id="Website" stroke="none" stroke-width="1" fill="none" fill-rule="evenodd">
        <g id="Main-Page" transform="translate(-107.000000, -12.000000)">
            <g id="Group-40" transform="translate(107.000000, 12.000000)">
                <rect id="Rectangle" fill="#FFFFFF" x="0" y="0" width="116.1" height="60.3" rx="13.05"></rect>
                <g id="logo1" transform="translate(13.950000, 9.450000)" fill-rule="nonzero">
                    <g id="layer101">
                        <path d="M0,5.13 L0,0 L16.9275614,0 L19.6424394,0.00231766736 L21.3889879,0.00494814874 L24.0843481,0.0116850737 L25.8551048,0.0185394441 L27.4080396,0.026896941 L28.3210365,0.0332853791 L29.1353026,0.0403144283 L29.6229167,0.0453509349 L30.0660811,0.0506640257 L30.5571825,0.0576893801 L30.8995028,0.0636128923 L31.1966335,0.069802417 L31.4483469,0.0762547017 L31.6071898,0.0812643947 L31.6987736,0.0846846084 L31.7788749,0.0881686823 L31.8474654,0.09171621 L31.9045166,0.0953267847 L31.95,0.099 C34.551,0.333 36.918,1.107 38.646,2.277 C38.826,2.3985 39.0279375,2.5543125 39.2370469,2.73023438 L39.3270612,2.80681924 C39.4023673,2.87159694 39.4783192,2.9386808 39.5542441,3.00742383 L39.6452981,3.09067045 L39.736068,3.17526141 C39.7662485,3.20365484 39.7963387,3.23223093 39.8262954,3.26094826 L39.9157221,3.34748255 C39.9305455,3.36196175 39.9453248,3.3764659 39.9600545,3.39098984 L40.0477959,3.47832945 C40.3960408,3.82830612 40.7095714,4.18371429 40.914,4.473 C42.084,6.102 42.678,8.361 42.534,10.62 C42.51456,10.91916 42.4878624,11.2044528 42.4531918,11.4775269 L42.4351888,11.6130534 C42.1675272,13.5412236 41.48424,14.85594 40.122,16.164 C38.31327,17.90145 35.710659,19.1008251 32.1831766,19.8232541 L31.8736894,19.8859893 L31.6823099,19.9241345 L31.4451365,19.9702186 L31.2729301,20.0026035 L31.1045395,20.0331867 L30.9939334,20.0526035 L30.8843251,20.071263 L30.7754353,20.0891827 L30.6669846,20.10638 L30.5586939,20.1228722 L30.4502838,20.1386768 L30.341475,20.1538113 L30.2319884,20.1682929 L30.0658764,20.1888293 L29.9534732,20.2017551 C29.9346092,20.2038595 29.9156761,20.2059394 29.8966683,20.2079949 L29.7816773,20.2200394 L29.6646121,20.231518 L29.5451933,20.2424484 L29.4231418,20.2528478 L29.2981781,20.2627336 L29.1700231,20.2721233 L29.0383975,20.2810343 L28.9030221,20.289484 L28.7636174,20.2974898 L28.5463449,20.3087042 L28.3956456,20.3156764 L28.1601219,20.3254219 L27.9963824,20.3314693 L27.8269381,20.3371772 L27.5614644,20.3451406 L27.2815839,20.3524382 L26.9863543,20.3591287 L26.5672092,20.3672065 L26.2324993,20.3727088 L25.633093,20.3809945 L25.1136535,20.3869833 L24.1120942,20.3965422 L17.883,20.448 L17.946,23.31 L17.95903,23.8338672 L17.9701912,24.2332699 L17.9771291,24.457543 L17.9867696,24.7394874 L17.9996221,25.0658135 L18.0106973,25.3071662 L18.016542,25.4216046 L18.0257368,25.5858036 L18.0354915,25.7414141 L18.0458585,25.8888428 L18.053136,25.982784 L18.0607245,26.0733902 L18.0686396,26.1607818 L18.0768969,26.2450795 C18.0783024,26.258878 18.0797229,26.2725526 18.0811587,26.2861058 L18.0899583,26.3659884 L18.0991389,26.4430785 L18.1087161,26.5174963 L18.1187055,26.5893626 L18.1291225,26.6587978 L18.1399828,26.7259225 C18.1418306,26.7369241 18.1436976,26.7478344 18.145584,26.758656 L18.1571383,26.8225408 L18.1691747,26.8844164 L18.1817087,26.9444033 L18.194756,27.002622 L18.208332,27.059193 L18.2224524,27.1142369 L18.2371326,27.1678743 L18.2523882,27.2202255 L18.2682348,27.2714113 C18.2709261,27.2798518 18.2736426,27.2882488 18.2763846,27.2966047 L18.2931469,27.3462682 C18.2959926,27.35447 18.2988647,27.3626359 18.3017632,27.3707682 L18.3194761,27.4191805 L18.3378421,27.4669094 L18.3568769,27.5140754 C18.360106,27.5218962 18.3633636,27.5296985 18.36665,27.537485 L18.386717,27.5840326 L18.4074917,27.6303186 L18.4289895,27.6764636 L18.4512261,27.7225881 L18.486,27.792 L18.5166048,27.851166 C18.8057335,28.3961916 19.1946058,28.7408268 19.8681453,28.9640988 L19.941408,28.98756 C20.0405664,29.018232 20.1456691,29.0464848 20.2572553,29.0725488 L20.342169,29.09169 L20.4295645,29.110032 C20.4443401,29.1130236 20.4592212,29.1159828 20.4742088,29.1189101 L20.5654219,29.1360938 L20.6592431,29.1525323 C20.6751002,29.1552111 20.691068,29.1578598 20.7071477,29.1604788 L20.804976,29.17584 L20.9055389,29.19051 L21.0088869,29.2045104 C21.0263465,29.2067892 21.0439242,29.209041 21.0616211,29.2112663 L21.1692416,29.2243027 C21.1874195,29.2264236 21.2057188,29.2285188 21.2241404,29.2305888 L21.336147,29.24271 L21.4511409,29.254248 L21.5691726,29.2652244 L21.6902926,29.2756608 L21.8145516,29.2855788 L21.942,29.295 L22.77,29.358 L22.77,34.2 L0,34.2 L0,29.466 L1.062,29.367 L1.17464894,29.3554358 L1.28475169,29.3432822 L1.39234438,29.3305239 L1.49746313,29.3171452 C1.5320944,29.3125806 1.56631936,29.30791 1.60014404,29.3031309 L1.70042323,29.2884652 C1.83254373,29.26847 1.95835596,29.2466969 2.07824516,29.2229808 L2.16705751,29.2048269 C2.19629545,29.1986524 2.22516922,29.1923539 2.25368484,29.1859288 L2.33816327,29.1662711 C2.68572998,29.0827603 2.97827617,28.9790655 3.22755836,28.8501483 L3.28656143,28.8187213 C3.56778625,28.6644587 3.79206058,28.4757144 3.97773515,28.2446239 L4.01560583,28.1962053 C4.04671578,28.1553486 4.07671592,28.113217 4.1057003,28.0697701 L4.14,28.017 L4.18132555,27.9515803 C4.18808153,27.9407404 4.19477209,27.9299257 4.20139784,27.919126 L4.24037925,27.8544296 C4.52060865,27.3801503 4.67765037,26.8965492 4.76210371,25.554938 L4.77317489,25.3665931 C4.79443642,24.9789479 4.81046989,24.5246145 4.82230172,23.9863767 L4.82787225,23.7101861 L4.83277102,23.4195332 L4.83702655,23.1139398 L4.84066733,22.7929277 L4.8437219,22.4560186 L4.84726694,21.9198021 L4.84965337,21.3451274 L4.85064815,20.9398483 L4.85131738,20.29749 L4.85082317,19.3742145 L4.84895347,18.3710915 L4.842,16.11 L4.831533,13.685454 L4.82483981,12.4621713 L4.82113236,11.9106651 L4.81564124,11.2341676 L4.80935611,10.6215179 L4.80585855,10.3379761 L4.80010406,9.93983731 L4.79367113,9.57291525 L4.78648246,9.23564405 L4.77846078,8.92645781 L4.77261206,8.73516314 L4.76633588,8.55519075 L4.75960933,8.38607668 C4.75844944,8.35877009 4.75726982,8.33189659 4.75607002,8.30544653 L4.748625,8.15175 C4.74606,8.10216 4.7434104,8.0541864 4.74067238,8.00775187 L4.73218927,7.87298818 C4.68257198,7.13461507 4.60629965,6.81868598 4.48462426,6.54528845 L4.462677,6.497406 C4.4589393,6.4894734 4.45516137,6.48155826 4.45134273,6.47365091 L4.42793861,6.42622304 L4.40353463,6.37851825 L4.36500382,6.30542693 L4.338,6.255 C4.07781,5.7771 3.6327789,5.4715095 2.88275999,5.30126028 L2.80543082,5.28441192 C2.70091094,5.26256568 2.59070882,5.24318472 2.47452494,5.22617688 L2.38626076,5.21386452 L2.29572536,5.20243344 C2.28044529,5.20060122 2.26506942,5.19880536 2.24959716,5.19704568 L2.15560224,5.18692032 C2.13974208,5.18530464 2.12378436,5.18372478 2.1077285,5.18218056 L2.01021088,5.17334148 L1.91030972,5.16534912 C1.89345933,5.16408714 1.87650846,5.16286008 1.85945652,5.16166776 L1.75592736,5.15492928 L1.64994444,5.14901592 C1.63207458,5.14809864 1.61410131,5.14721538 1.59602405,5.14636596 L1.48630783,5.14167408 L1.37406766,5.13778572 L1.25927545,5.13469224 L1.14190313,5.132385 C1.1221245,5.1320655 1.1022372,5.1317784 1.08224064,5.13152352 L0.96094548,5.13037944 L0.837,5.13 L0,5.13 Z M37.035,0.045 L54.6332593,0.0130807629 L56.8373064,0.010314265 L58.7792226,0.00923010771 L59.9376688,0.00960285279 L60.9938079,0.0109646293 L61.4852867,0.0120465698 L62.1787628,0.0142047323 L62.6129538,0.0160179384 L63.2238253,0.0193295595 L63.788328,0.0233875538 L64.1400857,0.0265276454 L64.4730094,0.0300296241 L64.787809,0.0339055559 L65.2275784,0.0404470107 L65.5001729,0.0453106152 L65.7571276,0.0505904047 L65.9991521,0.0562984454 L66.2269563,0.0624468035 C66.2637781,0.0635088933 66.3000369,0.0645898324 66.3357475,0.0656898723 L66.543552,0.0725213307 L66.7389105,0.079823272 L66.9225329,0.0876077626 C66.9521981,0.0889460605 66.9814038,0.0903049673 67.0101649,0.0916847345 L67.1775139,0.100215673 L67.3349012,0.109259326 L67.4830366,0.118827761 C67.5309519,0.122106043 67.5774435,0.1254738 67.6226298,0.128933042 L67.7543906,0.139587237 L67.8790289,0.150802412 L67.9972543,0.162590632 C68.0164636,0.16460376 68.0354352,0.166641267 68.054184,0.168703405 L68.164121,0.181373818 L68.2694196,0.194647443 L68.3707897,0.208536346 C68.3873967,0.210903106 68.4038697,0.213296006 68.4202233,0.215715297 L68.5170312,0.23054974 L68.611685,0.246029626 L68.7048944,0.262167022 L68.7973691,0.278973993 L68.9362565,0.3054663 L69.03,0.324 C72.432,1.017 76.023,3.429 77.436,5.967 C78.777,8.379 78.876,11.466 77.67,13.86 C76.761,15.669 74.88,17.388 72.594,18.495 C70.974,19.269 69.597,19.701 67.68,20.016 L67.4967303,20.0453242 L67.3190499,20.0729981 C67.2898631,20.0774751 67.2608796,20.081885 67.2320849,20.0862286 L67.0614633,20.1115023 C67.0333645,20.1155843 67.005425,20.1196017 66.97763,20.1235554 L66.8124768,20.1465193 C66.7852011,20.1502214 66.7580404,20.1538614 66.7309802,20.1574402 L66.569705,20.1781849 C66.5429873,20.1815222 66.5163404,20.1847999 66.4897498,20.1880189 L66.3928594,20.1995156 C66.2961656,20.2107544 66.1999822,20.2212236 66.1035917,20.2309642 L66.0071056,20.2404634 L65.861769,20.2538212 L65.7152252,20.266137 L65.616593,20.2737838 L65.5170257,20.2809901 L65.3655727,20.2909937 L65.2111193,20.3000574 L65.0531272,20.3082117 L64.8910586,20.3154874 L64.7243754,20.321915 L64.5525397,20.3275251 L64.4348543,20.3308262 L64.2532354,20.3351419 L64.000737,20.339757 L63.8029109,20.3424035 L63.6667031,20.3437969 L63.309888,20.346048 L63.0838278,20.346599 L62.8481316,20.3465878 L62.3805287,20.3451679 L61.8739761,20.3420945 L61.605,20.34 L60.0465249,20.3225276 L59.038187,20.3125562 L58.2957931,20.306787 L57.7622224,20.3040872 L57.5146406,20.3034375 L57.1663405,20.3034015 L56.949039,20.304036 L56.7432697,20.3052234 L56.5487013,20.3069863 L56.3650024,20.309347 L56.1918418,20.3123281 L56.028888,20.315952 L55.8758097,20.3202412 L55.7322756,20.3252181 L55.5979544,20.3309052 C54.516077,20.3813196 54.3593546,20.508054 54.2649122,20.7696084 L54.2483988,20.8181569 L54.2406213,20.8424474 L54.2359473,20.8597776 L54.2313846,20.8802982 L54.2269327,20.9039409 L54.2204623,20.9451098 L54.21424,20.9929196 L54.2102293,21.0283686 L54.2025367,21.1075413 L54.1952809,21.1972922 L54.1884599,21.2970754 L54.1775635,21.4941947 L54.1692708,21.6840599 L54.1608084,21.9273727 L54.1545865,22.1525085 L54.1493099,22.3910063 L54.1443398,22.6836841 L54.1402107,23.0336201 L54.1379431,23.3500469 L54.1368601,23.8126115 L54.1370259,23.952687 L54.1388359,24.3680518 L54.1411933,24.6492872 L54.1464199,25.063233 L54.1501928,25.2870478 L54.1565087,25.5904135 L54.1663853,25.9589162 L54.1740569,26.1882167 L54.1825903,26.4022037 L54.195297,26.6604107 L54.2022152,26.7766279 L54.2095075,26.8835028 L54.2191455,27.0031001 L54.2272716,27.0868939 L54.2314726,27.1246358 L54.2379457,27.1758566 L54.244624,27.2203957 L54.2491898,27.2462589 L54.2538462,27.2689763 C54.2546298,27.2724965 54.2554171,27.2758827 54.2562082,27.2791334 L54.261,27.297 C54.432,27.882 54.972,28.467 55.647,28.8 C55.6889492,28.8198305 55.7362631,28.8405659 55.7883175,28.8620145 L55.8530182,28.8880829 C55.8753169,28.8968783 55.8983341,28.9057756 55.9220298,28.9147624 L55.9951127,28.9419793 L56.0720269,28.9696599 L56.1525327,28.9977308 L56.2363903,29.0261182 L56.32336,29.0547486 L56.4132019,29.0835483 L56.5056762,29.1124437 L56.6005432,29.1413612 L56.697563,29.1702272 L56.796496,29.198968 L56.8971021,29.22751 L56.9991418,29.2557797 L57.1023752,29.2837033 L57.2065625,29.3112073 L57.3114638,29.338218 L57.4168396,29.3646619 L57.5752679,29.4031037 L57.6807804,29.4278083 L57.7859279,29.4516884 L57.8904706,29.4746702 C57.9078307,29.4784216 57.9251556,29.4821325 57.9424403,29.4858014 L58.0456263,29.507298 L58.1476081,29.5277124 C58.1644914,29.5310205 58.1813146,29.5342804 58.1980725,29.5374907 L58.2977984,29.5561437 L58.347,29.565 L58.68,29.628 L58.68,34.11 L46.773,34.11 L46.836,33.678 C46.8374091,33.6653178 46.8390879,33.6517041 46.8410223,33.6372215 L46.8475781,33.5912298 L46.855583,33.5404012 L46.8649524,33.4851118 L46.8813806,33.3946364 L46.9004042,33.29624 L46.9143878,33.2268687 L46.9371037,33.1180916 L46.9616552,33.0047789 L46.9789018,32.927344 L47.005879,32.8092928 L47.0244789,32.7298744 L47.0441569,32.647482 C47.0673243,32.5514354 47.0911622,32.4559459 47.115,32.364 C47.475,30.942 47.403,29.502 46.908,28.08 L46.8958552,28.0474198 L46.8658881,27.9705248 L46.8388096,27.903394 L46.797162,27.8025905 L46.7243183,27.6305158 L46.6265887,27.4047258 L46.5029546,27.1244416 L46.4052738,26.9062053 L46.2567819,26.5792347 L46.0981856,26.2367872 L46.0108913,26.0521185 L45.9575156,25.9410938 L45.8975221,25.8187981 L45.8558114,25.7361511 L45.8286805,25.6841042 L45.805456,25.6413454 L45.7922976,25.6183419 C45.790266,25.614889 45.7883163,25.6116296 45.7864506,25.6085678 L45.7762787,25.5926031 C45.7717117,25.585841 45.7679348,25.5809348 45.765,25.578 C45.7640122,25.5770122 45.7619282,25.5765062 45.7587796,25.5764698 L45.7510727,25.5770193 L45.7405835,25.5787989 L45.7197565,25.5837268 L45.6929867,25.591299 L45.6604647,25.6014414 L45.608483,25.618835 L45.512958,25.6528623 L45.3767089,25.7038914 L45.2160524,25.7662268 L44.9775222,25.8614721 L44.6761095,25.9849657 L44.3084706,26.1391187 L44.0225333,26.2612636 L43.875,26.325 L43.6185047,26.4333074 L43.235731,26.592416 L42.9468686,26.7102144 L42.6584624,26.8253341 L42.4571048,26.9036393 L42.3463182,26.9456476 L42.212711,26.9947048 L42.148473,27.0172949 L42.106429,27.0315007 L42.0589217,27.0466469 L42.0216124,27.0572895 L42.0069271,27.0608652 L41.9949651,27.0632468 L41.9857847,27.0644116 C41.9806044,27.0647775 41.9773171,27.0643171 41.976,27.063 C41.97546,27.06246 41.9750604,27.0613224 41.9747993,27.0595966 L41.9744292,27.0526637 L41.9748783,27.0422575 L41.9770622,27.0202587 L41.9827318,26.9792947 L41.9914678,26.9254484 L42.0065577,26.8407094 L42.0261107,26.7374213 L42.0662239,26.5357688 L42.1165495,26.2924714 L42.201051,25.8965417 L42.3015086,25.4380163 L42.4381491,24.828197 L42.578883,24.21261 L42.9037246,22.8177412 L43.0912806,21.9976402 L43.24725,21.299625 L43.3405889,20.8698359 L43.3992864,20.5893211 L43.422696,20.472048 L43.4396127,20.381952 L43.4455341,20.347573 L43.4507067,20.3132274 L43.452099,20.3011076 L43.4526791,20.292432 C43.4527641,20.2889646 43.45254,20.28681 43.452,20.286 L43.4501573,20.2850777 L43.4435558,20.283102 L43.4331563,20.2809583 L43.410672,20.2774453 L43.3557383,20.2708637 L43.280442,20.263482 L43.1440313,20.2520417 L42.975648,20.2396213 L42.6575858,20.2189487 L42.2547188,20.1961667 L42.075,20.187 L40.743,20.133 L40.797,18.909 L40.8033662,18.7942174 L40.817499,18.5654846 L40.833238,18.3418444 L40.8502697,18.1280758 L40.8621875,17.9934078 L40.8744478,17.8666672 L40.8869576,17.7492702 L40.8964479,17.668206 L40.9059871,17.5937915 L40.9123545,17.5481711 L40.9218883,17.4861668 L40.9282157,17.4493731 L40.9345069,17.4164198 L40.9407502,17.3874839 C40.942822,17.3785279 40.944884,17.3702709 40.946934,17.3627425 L40.95,17.352 C40.965,17.2995 40.9966667,17.2310278 41.0413349,17.1521775 L41.0696667,17.1036667 C41.0746389,17.0953889 41.0797338,17.0870185 41.0849477,17.0785611 L41.1176302,17.0268177 C41.1346563,17.0004688 41.1526875,16.9734375 41.171625,16.945875 L41.210679,16.8900864 C41.2307809,16.8618827 41.251723,16.8332485 41.2734064,16.8043347 L41.3177324,16.7461792 C41.3252751,16.7364394 41.3328927,16.7266798 41.3405818,16.7169059 L41.3875432,16.6581358 L41.4360417,16.5992917 C41.48525,16.5405 41.5365,16.482 41.589,16.425 C41.9953511,15.9756235 42.8531306,14.6178539 43.29,12.915 C43.7279506,11.2079315 43.7440414,9.1541965 43.38,7.425 C43.0888811,6.0421851 42.165,4.185 40.86,2.79 C39.99,1.86 38.715,0.945 37.035,0.045 Z M64.4042073,34.8673856 C66.2596582,34.8677942 67.4856029,33.8916924 67.4856029,32.3923631 C67.4856029,30.6022307 65.9552471,30.3485775 64.7565184,30.1332989 C63.9932458,29.9947695 63.3660531,29.8810067 63.3660531,29.3911187 C63.3660531,28.9704953 63.7310198,28.6871767 64.3495033,28.6871767 C65.0422867,28.6871767 65.4517513,28.975394 65.4592358,29.5593133 L67.3446242,29.5593133 C67.3371398,28.090874 66.1729753,27.1036136 64.3990364,27.1036136 C62.6250975,27.1036136 61.4424262,28.063658 61.4424262,29.4541233 C61.4424262,31.1860136 62.935632,31.5002222 64.1095942,31.6956331 C64.8864749,31.8254534 65.5236015,31.9775907 65.5236015,32.479862 C65.5236015,32.9709747 65.0300393,33.2208176 64.4783711,33.2208176 C63.7658562,33.2208176 63.2648096,32.8942256 63.2548758,32.2398169 L61.3176409,32.2398169 C61.3275747,33.8146707 62.5597791,34.8673856 64.4042073,34.8673856 Z M70.9036604,34.66 L70.9036604,32.5347027 L68.7982307,32.5347027 L68.7982307,34.66 L70.9036604,34.66 Z M74.6533449,34.66 L74.6533449,30.8424118 C74.6533449,29.6410975 75.0961491,29.145086 76.2158153,29.145086 L77.0780182,29.145086 L77.0780182,27.2708562 L76.4248342,27.270856 C75.4809833,27.270856 74.8170491,27.5622033 74.2938215,28.2119853 L73.940694,27.31168 L72.6665769,27.31168 L72.6665769,34.66 L74.6533449,34.66 Z M80.1707084,34.66 L80.1707084,32.5347027 L78.0652787,32.5347027 L78.0652787,34.66 L80.1707084,34.66 Z M85.4235324,34.8677944 C87.688584,34.8677942 89.3958438,33.2014947 89.3958438,30.98584 C89.3958438,28.7590269 87.688584,27.1037498 85.4235324,27.1037498 C83.1473222,27.1037498 81.4512211,28.7565775 81.4512211,30.9858402 C81.4512211,33.2014949 83.1473222,34.8677944 85.4235324,34.8677944 Z M85.4235324,32.9998242 C84.2780111,32.9998242 83.4652053,32.175996 83.4652053,30.9858402 C83.4652053,29.7958206 84.2780111,28.9718562 85.4235324,28.9718562 C86.5690538,28.9718562 87.3818596,29.7958206 87.3818596,30.9858402 C87.3818596,32.175996 86.5690538,32.9998242 85.4235324,32.9998242 Z M92.7853244,34.66 L92.7853244,32.5347027 L90.6798947,32.5347027 L90.6798947,34.66 L92.7853244,34.66 Z" id="Shape" fill="#202A52"></path>
                        <path d="M34.3494571,21.372376 L34.778008,21.3774197 L35.1093961,21.3822849 L35.4494158,21.3880767 L35.7981407,21.394794 L36.1556442,21.4024354 L36.6167342,21.4134238 L38.6170308,21.4621328 L39.8375342,21.4890415 L40.7541486,21.5062325 L41.0776293,21.5099515 L41.859,21.51 L41.805,21.807 L41.5210649,22.996905 L41.1719415,24.4334805 L41.094,24.75 L40.446,27.405 L33.291,27.495 L37.2071086,33.6093608 L37.341,33.822 C37.4154229,33.9505486 37.6106406,33.916342 37.8358461,33.7891583 L37.8784014,33.7642388 C37.8855451,33.7599096 37.8927125,33.7554939 37.899901,33.7509938 L37.9409067,33.7245607 C37.9615033,33.7109053 37.9822267,33.6966027 38.0030133,33.6817013 L38.0446523,33.6511149 L38.0655,33.63525 L38.1071812,33.6024311 L38.1279867,33.5854987 L38.1694568,33.550642 C38.1970222,33.5269778 38.2244,33.50248 38.25144,33.477264 L38.2917279,33.4389158 C38.3050602,33.4259631 38.3182894,33.4128452 38.3313965,33.3995767 L38.3703333,33.3593333 L38.4084257,33.3182722 L38.42712,33.297462 L38.4637346,33.2553364 C38.6140278,33.0785 38.735,32.886 38.79,32.706 L38.7975406,32.6800478 L38.8013066,32.6654245 L38.8088214,32.633008 L38.8163019,32.5965307 L38.8237343,32.5561917 L38.831105,32.5121902 L38.8384001,32.4647252 L38.8491712,32.3874692 L38.8596952,32.3035403 L38.8699256,32.2136103 L38.8830296,32.0855301 L38.8954196,31.9495686 L38.9041775,31.8433835 L38.9124257,31.7343329 L38.924914,31.5480395 L38.9336484,31.3967082 L38.9404202,31.2609687 L38.9570912,30.884533 L38.9676616,30.6809668 L38.9738505,30.5804433 L38.9803121,30.4905723 L38.987178,30.4106832 L38.9926719,30.3569135 L38.9985227,30.3080984 L39.0047861,30.263955 L39.0092183,30.2369816 L39.013875,30.211875 L39.0187726,30.1885512 L39.0266067,30.1567251 L39.0321786,30.1374917 L39.038049,30.1197478 L39.0442344,30.1034095 L39.0524342,30.0848355 L39.0611839,30.0681631 L39.0686012,30.0560842 L39.0764076,30.0450337 L39.0888825,30.0302026 L39.0977334,30.0213562 L39.1070308,30.0132447 L39.1167914,30.0057843 L39.1270314,29.9988911 L39.1433265,29.9894316 L39.1548373,29.9835898 L39.1794866,29.9726439 L39.2166232,29.9574061 L39.3360095,29.9041327 L39.818016,29.682 L42.075,28.629 L42.7276676,28.3219391 L43.5244961,27.9512696 L44.2218545,27.6318541 L44.511568,27.5014738 L44.7208899,27.4090282 L44.833396,27.3606255 L44.905707,27.330651 L44.9408521,27.3168845 L44.9600756,27.3099485 L44.9694019,27.3069796 L44.973,27.306 C45.0851538,27.2748462 45.1627988,27.2997692 45.2716345,27.4285508 L45.2963603,27.4588979 L45.3091584,27.4753901 L45.3357249,27.5110845 L45.3637189,27.5504895 L45.3933004,27.5937214 L45.4246298,27.640897 C45.4300059,27.6490947 45.4354615,27.6574615 45.441,27.666 C45.855,28.332 46.035,29.196 46.026,30.555 C46.024974,30.653154 46.0232332,30.7493716 46.0207248,30.8437782 L46.0163799,30.9840456 C45.9464837,32.9523698 45.5180276,34.1312509 44.223958,35.7243487 L44.1311676,35.8375063 C44.0212195,35.9703627 43.9053198,36.1062205 43.7831854,36.2457518 L43.6712894,36.3726598 L43.5559636,36.5016712 L42.530574,37.6346451 L42.0435506,38.1773115 L41.7663844,38.4894945 L41.6052691,38.6731423 L41.5060034,38.7876354 L41.4035878,38.9074875 L41.3186779,39.0090428 L41.2607452,39.0803348 L41.2224779,39.129008 L41.1911485,39.1705341 L41.1720694,39.1971465 L41.161401,39.2127915 L41.148405,39.233196 L41.1389325,39.2500236 L41.1345281,39.2593095 L41.1316196,39.2670877 L41.1301788,39.2733911 L41.13,39.276 L41.1302424,39.2777243 L41.13217,39.2834007 L41.1386119,39.297395 L41.1492237,39.317821 L41.1696829,39.3547809 L41.2134018,39.4302812 L41.2947467,39.5663804 L41.47848,39.866544 L41.65875,40.156875 L41.9369374,40.6008187 L42.3359484,41.2323513 L42.93,42.165 L43.4161988,42.9237812 L43.99128,43.829496 L44.38152,44.451144 L44.5987411,44.8024602 L44.6960966,44.9642321 L44.7183091,45.0030276 L44.7261523,45.0177345 L44.7297576,45.0258103 C44.729919,45.0263331 44.73,45.02673 44.73,45.027 C44.73,45.0276984 44.7291904,45.0283934 44.7275836,45.0290849 L44.7203837,45.0311487 L44.7007759,45.0342031 L44.6708198,45.0372055 L44.6307641,45.0401534 L44.5808579,45.043044 L44.4994231,45.0468044 L44.317612,45.0531099 L43.9375419,45.062239 L43.640466,45.0675006 L43.0956888,45.0748138 L42.0919709,45.083546 L41.2164244,45.0878554 L40.194401,45.0899276 L35.19,45.09 L34.857,44.577 L34.5231728,44.0420864 L34.515,44.028 L34.5143392,44.0278171 L34.5080377,44.0286207 L34.4765666,44.036158 L34.3974726,44.0579615 L34.2434679,44.1028675 L34.0340853,44.1657815 L33.7756307,44.2449834 L33.4095891,44.3591045 L33.0292585,44.4796062 L32.496846,44.6512432 L32.256,44.73 L31.3704118,45.0145263 C30.4723868,45.3030484 29.5345882,45.4486075 28.5913563,45.4459839 L26.91,45.441 L26.2590997,45.4362382 L25.5465207,45.4278063 L24.9327657,45.4173542 L24.5357053,45.4085201 L24.248274,45.4007097 L23.9040356,45.3889946 L23.6722147,45.3786541 L23.5648599,45.3726453 L23.4739318,45.3664638 L23.4003119,45.3601225 L23.3648146,45.3562461 L23.3448816,45.3536338 L23.328,45.351 C22.581,45.225 21.906,44.856 21.177,44.163 C19.899,42.948 19.035,41.616 18.711,40.338 C18.4275,39.2217188 18.5102798,37.198459 18.8820772,36.0023266 L18.9,35.946 L18.999,35.658 L21.42,35.622 L21.6760742,35.6196824 L22.0070833,35.6149871 L22.2456004,35.6103977 L22.5841701,35.6020485 L22.8621936,35.593404 L23.1149769,35.5838674 L23.3390048,35.5736873 L23.5086776,35.5644472 L23.6512885,35.5550712 L23.7352805,35.548383 L23.7910913,35.5430845 L23.836308,35.5378659 L23.8630039,35.534023 L23.8833081,35.5302557 L23.8932018,35.5277926 L23.9001174,35.5253727 C23.9019201,35.5245737 23.9032174,35.5237826 23.904,35.523 C23.90535,35.52192 23.9067,35.5196088 23.9080493,35.516096 L23.9107466,35.5074773 L23.9134407,35.495707 L23.9161303,35.480838 L23.9201533,35.4528397 L23.9228259,35.4304545 L23.9281425,35.3769939 L23.9321,35.3295022 L23.9373281,35.2566563 L23.9450456,35.1278361 L23.9513403,35.0034699 L23.9611,34.7744776 L23.9692684,34.5461204 L23.979168,34.217928 L23.989239,33.813054 L24.001397,33.1872866 L24.0103078,32.5589014 L24.048,29.358 L24.579,28.989 L24.6292253,28.9529414 L24.6778025,28.9168642 C24.7016543,28.8988457 24.7248326,28.8808758 24.7472539,28.8630378 L24.7910625,28.8275625 L24.8121636,28.8100031 L24.8526667,28.7753333 C24.8657778,28.7638889 24.8784907,28.7525648 24.8907809,28.7413858 L24.926358,28.7083086 L24.95925,28.67625 L24.9746427,28.6606489 L25.0032292,28.6303958 C25.0709375,28.5564375 25.11,28.4955 25.11,28.458 C25.11,28.4524898 25.1092241,28.4455627 25.1077094,28.4372992 L25.1037061,28.4190143 L25.0977988,28.397309 L25.0900538,28.3723265 L25.080537,28.34421 L25.0564528,28.2791479 L25.0342304,28.2231896 L25.008691,28.1616297 L24.9800574,28.0949517 L24.9485529,28.0236387 L24.9024663,27.9221803 L24.8651303,27.8419321 L24.7982861,27.7017042 L24.7557726,27.6144665 L24.6967425,27.4955342 L24.651,27.405 L24.5861182,27.2804916 L24.5268586,27.1643484 L24.4729734,27.0558268 L24.4399132,26.987346 L24.4090581,26.9217019 L24.3803345,26.8586739 L24.3473156,26.7832325 L24.3173691,26.7111044 L24.2955277,26.6554984 C24.2676228,26.5824892 24.2445207,26.513813 24.2254383,26.4471195 L24.2118679,26.3974345 C24.2075875,26.3809723 24.203546,26.3645973 24.1997313,26.3482728 L24.1889553,26.2994139 C24.1855818,26.2831537 24.1824229,26.2669072 24.1794662,26.2506377 L24.1711907,26.2017238 C24.1673442,26.1771957 24.1639251,26.1525334 24.1608923,26.1276128 L24.1540911,26.0647019 L24.1487558,26.0002849 L24.147,25.974 C24.012,24.228 25.893,22.329 28.395,21.69 L28.4760318,21.6702668 L28.5323502,21.6574603 L28.6203025,21.6387737 L28.6812705,21.6266643 L28.7441183,21.6148335 L28.8088576,21.6032811 L28.909538,21.586474 L29.0145386,21.5702921 L29.0869583,21.5598513 L29.1613267,21.5496879 L29.2765585,21.5349626 L29.3962397,21.5208606 L29.5204091,21.5073812 L29.6057011,21.4987405 L29.6930167,21.4903761 L29.827809,21.478347 L29.9672186,21.4669385 L30.0627427,21.4596773 L30.209934,21.4493017 L30.4135389,21.4364302 L30.6256279,21.4246576 L30.7903176,21.4165484 L30.9598701,21.4090558 L31.134324,21.4021793 L31.3746207,21.3939679 L31.6237919,21.3868491 L31.8819294,21.3808215 L32.1491252,21.3758836 L32.3555216,21.3728945 L32.6387902,21.3698601 L33.00598,21.3675938 L33.2333516,21.3670472 L34.3494571,21.372376 Z" id="Path" fill="#B0CB1F"></path>
                    </g>
                    <g id="layer102" transform="translate(17.100000, 3.510000)" fill="#FFFFFF">
                        <path d="M9.9,34.029 C8.919,33.723 8.37,32.994 8.37,31.968 C8.37,31.014 8.811,30.186 9.738,29.403 C10.125,29.079 10.197,29.052 10.395,29.142 C10.521,29.196 10.755,29.43 10.917,29.655 C11.385,30.321 12.771,32.868 12.834,33.174 C12.915,33.606 12.753,33.813 12.222,33.975 C11.736,34.119 10.305,34.146 9.9,34.029 Z" id="Path"></path>
                        <path d="M0.063,11.277 C0.027,11.25 0,8.712 0,5.652 L0,0.09 L0.927,0.081 C5.148,0.045 7.065,0.306 8.73,1.179 C10.431,2.061 11.25,3.528 11.25,5.67 C11.25,7.596 10.611,8.847 9.126,9.81 C8.37,10.305 6.93,10.809 5.67,11.016 C4.41,11.232 0.207,11.421 0.063,11.277 Z" id="Path"></path>
                        <path d="M35.919,7.632 C35.928,5.589 35.955,3.123 35.991,2.16 L36.045,0.405 C43.815,-0.285 47.7,1.545 47.7,5.895 C47.7,10.245 43.77,12.06 35.91,11.34 L35.919,7.632 Z" id="Path"></path>
                    </g>
                </g>
            </g>
        </g>
    </g>
</svg>