<svg width="38" height="37" xmlns="http://www.w3.org/2000/svg">
    <g fill="currentColor" fill-rule="nonzero">
        <path
            d="M18.932 36.864C8.768 36.864.5 28.596.5 18.432.5 8.268 8.768 0 18.932 0c10.164 0 18.432 8.268 18.432 18.432 0 10.164-8.268 18.432-18.432 18.432zm0-34.56c-8.893 0-16.128 7.235-16.128 16.128S10.039 34.56 18.932 34.56 35.06 27.325 35.06 18.432 27.825 2.304 18.932 2.304z" />
        <path d="M26.996 19.584H10.868a1.152 1.152 0 010-2.304h16.128a1.152 1.152 0 010 2.304z" />
        <path
            d="M18.932 27.648a1.152 1.152 0 01-1.152-1.152V10.368a1.152 1.152 0 012.304 0v16.128c0 .636-.516 1.152-1.152 1.152z" />
    </g>
</svg>