<svg width="20px" height="20px" viewBox="0 0 20 20" version="1.1" xmlns="http://www.w3.org/2000/svg"
    xmlns:xlink="http://www.w3.org/1999/xlink">
    <g id="Website" stroke="none" stroke-width="1" fill="none" fill-rule="evenodd">
        <g id="Main-Page" transform="translate(-1228.000000, -33.000000)" fill="currentColor" fill-rule="nonzero">
            <g id="Group-42" transform="translate(1228.000000, 33.000000)">
                <path
                    d="M11.002842,9.55485311 C11.232478,9.43741711 11.488294,9.37533311 11.753698,9.37533311 C12.193522,9.37533311 12.60703,9.54608111 12.918742,9.85616111 L13.589766,9.18520511 C15.250326,9.76728511 17.170918,9.39464511 18.498414,8.06721711 C19.615382,6.95024911 20.055886,5.41344911 19.820742,3.96484511 C19.794834,3.80531711 19.681886,3.67373711 19.528138,3.62409711 C19.37439,3.57438911 19.205614,3.61478111 19.091374,3.72908911 L18.095038,4.72542511 C17.283662,5.53680111 15.968066,5.53680111 15.15669,4.72542511 C14.345246,3.91404911 14.345246,2.59845311 15.15669,1.78707711 L16.153026,0.790741113 C16.267334,0.676433113 16.308066,0.507657113 16.25829,0.353841113 C16.208582,0.199957113 16.076798,0.0872811128 15.917202,0.0613731128 C14.468666,-0.173770887 12.931798,0.266733113 11.814898,1.38370111 C10.467682,2.73091711 10.105106,4.68877311 10.724722,6.36599311 L9.269386,7.82132911 L11.002842,9.55485311 Z"
                    id="Path"></path>
                <path
                    d="M8.350842,12.1920291 L6.624662,10.4658491 L0.588642,16.5018011 C-0.196214,17.2866571 -0.196214,18.5591411 0.588642,19.3439971 C1.373498,20.1288531 2.645982,20.1288531 3.430838,19.3439971 L8.634266,14.1406371 C8.109442,13.6130251 8.014854,12.8164731 8.350842,12.1920291 Z"
                    id="Path"></path>
                <path
                    d="M12.20073,10.5804971 C12.07731,10.4570771 11.91547,10.3953331 11.753698,10.3953331 C11.591926,10.3953331 11.430086,10.4570771 11.306666,10.5804971 L10.946334,10.9408291 L4.527678,4.52217311 L4.827694,4.22215711 C5.101054,3.94886511 5.067122,3.49550911 4.755546,3.26607711 L2.13673,1.33739311 C1.885062,1.15209311 1.535814,1.17840911 1.314814,1.39940911 L0.202878,2.51141311 C-0.018122,2.73241311 -0.044438,3.08172911 0.140862,3.33332911 L2.069478,5.95214511 C2.29891,6.26365311 2.751994,6.29792511 3.025558,6.02429311 L3.325574,5.72420911 L9.74423,12.1428651 L9.358534,12.5285611 C9.111626,12.7754691 9.111626,13.1757171 9.358534,13.4226251 L15.279906,19.3439971 C16.064762,20.1288531 17.337246,20.1288531 18.122102,19.3439971 C18.906958,18.5591411 18.906958,17.2866571 18.122102,16.5018011 L12.20073,10.5804971 Z"
                    id="Path"></path>
            </g>
        </g>
    </g>
</svg>